<svg xmlns="http://www.w3.org/2000/svg" xmlns:xlink="http://www.w3.org/1999/xlink" width="20" height="43" viewBox="0 0 20 43">
    <defs>
        <path id="a" d="M0 0h20v43H0z"/>
    </defs>
    <g fill="none" fill-rule="evenodd">
        <mask id="b" fill="#fff">
            <use xlink:href="#a"/>
        </mask>
        <path fill="#FFC842" d="M9.472 22.404l8.83 9.27-9.095 9.522v-18.52l.265-.272zM9.207 1.819l9.095 9.523-8.83 9.27-.265-.273V1.819zM7.981 0L8 19.073.868 11.595 0 12.471l8 8.394v1.286l-8 8.393.868.877L8 23.942 7.981 43h1.207C12.94 39.104 16.576 35.208 20 31.674c-3.213-3.402-6.45-6.78-9.68-10.166 3.201-3.414 6.498-6.733 9.68-10.166C16.25 7.428 12.412 3.378 9.188 0H7.981z" mask="url(#b)"/>
    </g>
</svg>
