<svg xmlns="http://www.w3.org/2000/svg" width="112" height="100" viewBox="0 0 112 100">
    <g fill="#FFF" fill-rule="evenodd">
        <path d="M111.724 83.448c-10.584 0-15.288-20.108-20.329-41.221-4.2-18.265-8.904-38.876-16.968-38.876-7.897 0-12.769 20.611-16.969 38.708-4.872 21.281-9.576 41.222-20.329 41.222-10.584 0-15.288-20.108-20.16-41.222C12.769 23.962 7.896 3.351 0 3.351V0c10.584 0 15.289 20.108 20.329 41.221C24.529 59.32 29.4 79.93 37.297 79.93c7.897 0 12.769-20.61 16.969-38.708C59.138 20.108 63.842 0 74.426 0c10.585 0 15.29 20.108 20.33 41.221 4.2 18.098 9.072 38.708 16.968 38.708v3.52z"/>
        <circle cx="75.172" cy="37.931" r="4.138"/>
        <path d="M6.092 99.525c-1.006 0-1.676-.337-2.179-1.012-.503-.674-.67-1.517-.67-2.865V90.42h1.173v4.89c0 2.022.67 3.034 2.012 3.034.335 0 .67 0 1.005-.169.336-.168.671-.337.839-.506.335-.168.503-.505.67-.842l.503-1.012v-5.563h1.174v7.249c0 .337.167.506.335.506v1.011h-.335-.168c-.335 0-.503-.168-.67-.337-.168-.169-.336-.337-.336-.674v-1.012c-.168 1.012-.67 1.517-1.341 2.023-.67.337-1.341.506-2.012.506z"/>
        <path fill-rule="nonzero" d="M6.092 99.693c-1.006 0-1.844-.337-2.347-1.011-.503-.674-.67-1.686-.67-3.034v-5.395h1.509v5.226c0 1.854.67 2.697 1.844 2.697.335 0 .67 0 .838-.168.335-.169.503-.338.838-.506.335-.169.503-.506.67-.674.168-.338.336-.506.503-.843v-5.732h1.51v7.586c0 .337.167.337.167.337h.167v1.349h-.502c-.336 0-.671-.169-.839-.337a1.292 1.292 0 0 1-.335-.843v-.337c-.335.505-.838.843-1.173 1.011-.67.506-1.51.674-2.18.674zM3.41 90.76v4.889c0 1.18.168 2.191.67 2.697.504.506 1.006.843 2.012.843.67 0 1.341-.169 2.012-.506a3.299 3.299 0 0 0 1.509-1.517l.335-.675v1.855c0 .168 0 .506.168.506.167.168.335.168.503.168h.335v-.674c-.335 0-.335-.337-.335-.675v-7.08H9.78v5.395l-.503 1.011c-.335.506-.502.843-.838 1.012l-1.006.505c-.335.169-.67.169-1.005.169-1.51 0-2.18-1.012-2.18-3.203v-4.72H3.41z"/>
        <path d="M20.677 99.356h-1.174v-4.889c0-1.011-.167-1.854-.502-2.191-.336-.506-.839-.674-1.342-.674-.335 0-.67 0-1.005.168l-1.006.506c-.336.168-.503.506-.838.843l-.503 1.011v5.395H13.3v-8.766h1.006v2.023a3.299 3.299 0 0 1 1.508-1.518 4.62 4.62 0 0 1 2.18-.505c.503 0 .838.168 1.173.337.335.168.67.506.838.674.168.337.336.674.503 1.18.168.506.168 1.012.168 1.517v4.89z"/>
        <path fill-rule="nonzero" d="M20.845 99.525h-1.51v-5.058c0-1.011-.167-1.685-.502-2.191-.335-.337-.67-.674-1.174-.674-.335 0-.67 0-1.005.168-.336.169-.671.337-.839.506-.335.168-.503.506-.67.674-.168.337-.335.506-.503.843v5.563h-1.509v-9.272h1.509v1.518c.335-.338.67-.843 1.173-1.012.67-.337 1.51-.674 2.347-.674.503 0 1.006.168 1.341.337.336.168.671.506.839.843.167.337.335.843.503 1.348.167.506.167 1.012.167 1.686v5.395h-.167zm-1.174-.337h.67v-4.89c0-.505 0-1.01-.167-1.516-.168-.506-.168-.843-.335-1.18-.168-.338-.503-.506-.67-.675-.336-.168-.671-.168-1.174-.168-.67 0-1.51.168-2.012.505a3.299 3.299 0 0 0-1.509 1.518l-.335.674v-2.529h-.67v8.43h.67V94.13l.503-1.011c.168-.337.503-.675.838-.843l1.006-.506c.335-.506.838-.506 1.173-.506.671 0 1.174.338 1.51.843.334.506.502 1.349.502 2.36v4.72z"/>
        <path d="M25.874 99.525c-1.006 0-1.677-.337-2.18-1.012-.502-.674-.67-1.517-.67-2.865V90.42h1.173v4.89c0 2.022.67 3.034 2.012 3.034.335 0 .67 0 1.006-.169.335-.168.67-.337.838-.506.335-.168.503-.505.67-.842l.504-1.012v-5.563H30.4v7.249c0 .337.168.506.335.506v1.011H30.4h-.168c-.335 0-.503-.168-.67-.337-.168-.169-.335-.337-.335-.674v-1.012a3.299 3.299 0 0 1-1.51 1.517c-.502.843-1.173 1.012-1.843 1.012z"/>
        <path fill-rule="nonzero" d="M25.874 99.693c-1.006 0-1.844-.337-2.347-1.011-.503-.674-.67-1.686-.67-3.034v-5.395h1.508v5.226c0 1.854.67 2.697 1.844 2.697.335 0 .67 0 .838-.168.335-.169.503-.338.838-.506.336-.169.503-.506.671-.674.168-.338.335-.506.503-.843v-5.732h1.509v7.586c0 .337.167.337.167.337h.168v1.349h-.671c-.335 0-.67-.169-.838-.337a1.292 1.292 0 0 1-.335-.843v-.337c-.335.505-.838.843-1.174 1.011-.503.506-1.34.674-2.011.674zm-2.682-8.934v4.889c0 1.18.167 2.191.67 2.697.503.506 1.006.843 2.012.843.67 0 1.34-.169 2.011-.506a3.299 3.299 0 0 0 1.51-1.517l.334-.675v1.855c0 .168 0 .506.168.506.168.168.335.168.503.168h.335v-.674c-.335 0-.335-.337-.335-.675v-7.08h-.67v5.395l-.503 1.011c-.168.337-.503.506-.839.843l-1.006.506c-.335.168-.67.168-1.005.168-1.51 0-2.18-1.011-2.18-3.203v-4.72h-1.005v.169z"/>
        <path d="M35.932 99.525c-.67 0-1.341-.169-2.012-.337-.67-.169-1.173-.506-1.676-1.012l.503-.843c.503.337 1.006.675 1.509.843.503.169 1.006.337 1.676.337.67 0 1.341-.168 1.676-.505.336-.338.671-.675.671-1.18 0-.169 0-.506-.168-.675l-.503-.505c-.167-.17-.502-.17-.838-.338-.335-.168-.67-.168-1.173-.337-.503-.168-1.006-.168-1.341-.337-.336-.169-.67-.337-.838-.337l-.503-.506c-.168-.168-.168-.506-.168-.843 0-.506.168-.843.335-1.18.168-.337.336-.674.67-.843l1.007-.506c.335-.168.838-.168 1.34-.168.671 0 1.342.168 1.845.337a3.647 3.647 0 0 1 1.34.843l-.502.674c-.335-.337-.67-.505-1.174-.674-.502-.169-1.005-.337-1.508-.337-.336 0-.503 0-.838.168-.336 0-.503.169-.671.338l-.503.505c-.168.169-.168.506-.168.675 0 .168 0 .505.168.505 0 .169.168.338.335.338.168.168.336.168.67.337.336 0 .671.168 1.007.337.503.168 1.006.337 1.508.337.503.169.839.337 1.006.506.168.168.503.337.67.674.169.337.169.506.169 1.012 0 .842-.336 1.517-.839 1.854-.838.674-1.676.843-2.682.843z"/>
        <path fill-rule="nonzero" d="M35.932 99.693c-.67 0-1.341-.168-2.012-.337-.67-.168-1.34-.505-1.676-1.011l-.168-.169.671-1.18.168.169c.503.337 1.005.674 1.508.843.503.168 1.006.337 1.51.337.67 0 1.173-.169 1.508-.337.335-.169.503-.506.503-1.012 0-.168 0-.337-.168-.506-.168-.168-.168-.337-.503-.337-.167-.168-.503-.168-.838-.337-.335-.168-.67-.168-1.173-.337s-1.006-.169-1.342-.337l-1.005-.506c-.336-.169-.503-.337-.671-.674-.168-.337-.168-.506-.168-1.012s.168-.843.336-1.18c.167-.337.503-.674.838-.843.335-.168.67-.337 1.173-.506.336-.168.839-.168 1.341-.168.671 0 1.342.168 1.844.337a3.647 3.647 0 0 1 1.342.843l.167.169-.838 1.011-.168-.169c-.335-.337-.67-.505-1.173-.674-.67-.337-1.509-.337-2.18-.168-.167 0-.502.168-.67.337-.168.168-.335.337-.335.505.167 0 .167.169.167.506 0 .169 0 .337.168.506 0 .169.168.169.335.337.168.169.336.169.67.337.336 0 .671.169 1.007.337.503.169 1.006.338 1.508.338.503.168.839.337 1.174.505.335.169.503.506.67.675.168.337.168.674.168 1.011 0 .843-.335 1.517-1.006 2.023-.67.506-1.676.674-2.682.674zm-3.353-1.517c.336.337.839.675 1.51.843.67.169 1.34.337 1.843.337 1.006 0 1.844-.168 2.347-.674.503-.506.838-1.012.838-1.686 0-.337 0-.674-.167-.843-.168-.168-.336-.505-.503-.505l-1.006-.506c-.503-.169-.838-.337-1.509-.337-.335-.169-.67-.169-1.006-.338-.335-.168-.503-.168-.67-.337l-.503-.505c-.168-.17-.168-.338-.168-.675s0-.674.168-.843c.167-.168.335-.505.503-.505.167-.169.503-.338.67-.338.67-.168 1.677-.168 2.347.169.335.169.838.337 1.174.674l.335-.337c-.335-.337-.67-.506-1.174-.674-.502-.169-1.173-.337-1.676-.337-.503 0-.838 0-1.173.168l-1.006.506c-.335.169-.503.506-.67.843-.168.337-.168.674-.168 1.011 0 .338 0 .506.167.843l.503.506c.168.169.503.337.838.337.336.169.839.169 1.341.337.503.169.839.169 1.174.338.335.168.67.168.838.337.168.168.503.337.503.505.168.169.168.506.168.675 0 .674-.168 1.011-.67 1.348-.504.338-1.007.506-1.845.506-.67 0-1.173-.168-1.676-.337a3.647 3.647 0 0 1-1.341-.843l-.336.337z"/>
        <path d="M43.979 99.525c-1.006 0-1.677-.337-2.18-1.012-.502-.674-.67-1.517-.67-2.865V90.42h1.173v4.89c0 2.022.67 3.034 2.012 3.034.335 0 .67 0 1.006-.169.335-.168.67-.337.838-.506.335-.168.503-.505.67-.842l.504-1.012v-5.563h1.173v7.249c0 .337.168.506.335.506v1.011h-.335-.168c-.335 0-.503-.168-.67-.337-.168-.169-.335-.337-.335-.674v-1.012a3.299 3.299 0 0 1-1.51 1.517c-.502.843-1.173 1.012-1.843 1.012z"/>
        <path fill-rule="nonzero" d="M43.979 99.693c-1.006 0-1.844-.337-2.347-1.011-.503-.674-.67-1.686-.67-3.034v-5.395h1.508v5.226c0 1.854.67 2.697 1.844 2.697.335 0 .67 0 .838-.168.336-.169.503-.338.838-.506.336-.169.503-.506.671-.674.168-.338.335-.506.503-.843v-5.732h1.509v7.586c0 .337.167.337.167.337h.168v1.349h-.671c-.335 0-.67-.169-.838-.337a1.292 1.292 0 0 1-.335-.843v-.337c-.335.505-.838.843-1.174 1.011-.502.506-1.34.674-2.011.674zm-2.682-8.934v4.889c0 1.18.167 2.191.67 2.697.503.506 1.006.843 2.012.843.67 0 1.34-.169 2.011-.506a3.299 3.299 0 0 0 1.51-1.517l.334-.675v1.855c0 .168 0 .506.168.506.168.168.335.168.503.168h.335v-.674c-.335 0-.335-.337-.335-.675v-7.08h-.67v5.395l-.503 1.011c-.168.337-.503.506-.839.843l-1.005.506c-.336.168-.671.168-1.006.168-1.51 0-2.18-1.011-2.18-3.203v-4.72h-1.005v.169z"/>
        <g fill-rule="nonzero">
            <path d="M53.367 99.525c-.336 0-.839 0-1.174-.169-.335-.168-.67-.337-.838-.505-.335-.169-.503-.506-.67-.843-.168-.338-.168-.675-.168-1.012 0-.337.167-.674.335-1.011.168-.337.503-.675.67-.843.336-.169.671-.337 1.174-.506.503-.169 1.006-.169 1.509-.169.503 0 .838 0 1.34.169.504 0 .84.169 1.174.337v-.843c0-.843-.167-1.348-.67-1.854s-1.006-.674-1.844-.674c-.503 0-.838.168-1.341.337a3.647 3.647 0 0 0-1.341.843l-.336-.843c1.174-.843 2.18-1.18 3.353-1.18 1.174 0 2.012.337 2.515.843.67.674 1.005 1.517 1.005 2.528v4.046c0 .337.168.506.336.506v1.011h-.503c-.335 0-.503 0-.67-.168-.168-.169-.168-.337-.336-.674v-.675c-.335.506-.838 1.012-1.509 1.18-.67 0-1.34.169-2.011.169zm.167-.843c.67 0 1.174-.169 1.677-.337.503-.169.838-.506 1.173-.843.168-.169.168-.169.168-.337v-1.687c-.336-.168-.838-.336-1.174-.336-.335 0-.838-.169-1.173-.169-.838 0-1.509.169-2.012.506-.503.337-.838.843-.838 1.349 0 .337 0 .505.168.842.167.17.167.506.502.675.336.168.336.337.671.337.335-.169.67 0 .838 0z"/>
            <path d="M53.367 99.693c-.503 0-.839 0-1.174-.168-.335-.169-.67-.337-1.006-.674-.335-.338-.503-.506-.67-1.012-.168-.337-.168-.674-.168-1.18 0-.337.168-.843.335-1.18.168-.337.503-.674.839-.843.335-.169.838-.506 1.173-.506.838-.168 1.844-.337 2.85 0 .335 0 .67.169 1.006.169v-.506c0-.674-.168-1.349-.67-1.686-.336-.337-1.007-.674-1.677-.674-.336 0-.838.169-1.341.337-.503.169-.839.506-1.341.674l-.168.169-.67-1.18.167-.169c1.173-.843 2.347-1.18 3.353-1.18 1.173 0 2.011.337 2.682 1.012.67.674 1.006 1.517 1.006 2.697v4.046c0 .169.167.337.167.337h.168v1.349h-.67c-.336 0-.671-.169-.839-.337-.167-.169-.335-.506-.335-.675v-.168a5.095 5.095 0 0 1-1.173.843c-.503.337-1.174.505-1.844.505zm.67-5.394c-.503 0-1.006 0-1.341.168a8.149 8.149 0 0 0-1.173.506c-.336.169-.503.506-.671.843-.168.337-.168.674-.168 1.012 0 .337 0 .674.168 1.011.168.337.335.506.503.843.168.169.503.337.838.506.335.168.67.168 1.006.168.67 0 1.341-.168 1.844-.337.503-.337 1.006-.674 1.509-1.18l.335-.506v1.349c0 .169 0 .337.168.506.167.168.335.168.503.168h.167v-.674c-.335 0-.335-.337-.335-.674v-4.046c0-1.012-.335-1.855-.838-2.36-.503-.506-1.341-.843-2.515-.843-1.006 0-2.012.337-3.017 1.011l.167.337c.503-.337.838-.505 1.341-.674.503-.169 1.006-.337 1.51-.337.837 0 1.508.168 2.01.674.504.506.671 1.18.671 2.023v1.18l-.335-.168c-.335-.169-.67-.169-1.173-.338-.168 0-.67-.168-1.174-.168zm-.503 4.552c-.335 0-.67 0-.838-.169-.335-.169-.503-.337-.67-.506-.168-.168-.336-.506-.503-.674-.168-.337-.168-.506-.168-.843 0-.674.335-1.18.838-1.517.503-.337 1.174-.506 2.012-.506.503 0 .838 0 1.34.169.504 0 .84.168 1.174.337h.168v1.517c0 .169 0 .337-.168.337-.167 0-.167.337-.335.337-.335.337-.67.675-1.173 1.012-.336.337-1.006.506-1.677.506zm.67-3.71c-.837 0-1.34.17-1.843.507-.503.337-.67.674-.67 1.18 0 .168 0 .505.167.674.167.168.167.337.335.506.168.168.335.337.67.337.168.168.504.168.671.168.503 0 1.006-.168 1.509-.337a1.72 1.72 0 0 0 1.006-.843c.167-.168.167-.168.167-.337v-1.518c-.335-.168-.67-.168-1.005-.336h-1.006z"/>
        </g>
        <path d="M60.24 87.05h1.173v10.283c0 .337.168.506.336.843.167.169.502.337.67.337h.503c.168 0 .335 0 .503-.168l.168.843c-.168.168-.503.168-.839.168h-.838c-.503 0-1.006-.168-1.173-.505-.336-.338-.503-.675-.503-1.18V87.05z"/>
        <path fill-rule="nonzero" d="M62.084 99.693c-.503 0-1.006-.168-1.341-.505-.336-.337-.503-.843-.503-1.349V86.881h1.509v10.452c0 .337 0 .506.167.675.168.168.335.168.67.168h.336c.168 0 .335 0 .503-.168l.168-.169.335 1.349h-.168c-.167.168-.503.168-.838.168-.335.337-.67.337-.838.337zm-1.509-12.475V97.67c0 .506.168.843.335 1.18.336.338.67.338 1.174.338h.838c.168 0 .335-.169.503-.169l-.168-.506H62.42c-.335 0-.67-.168-.838-.337a1.292 1.292 0 0 1-.335-.843V87.218h-.67z"/>
        <g fill-rule="nonzero">
            <path d="M70.801 99.525c-.335 0-.838 0-1.173-.169-.336-.168-.671-.337-.839-.505-.335-.169-.503-.506-.67-.843-.168-.338-.168-.675-.168-1.012 0-.337.168-.674.335-1.011.168-.337.503-.675.671-.843.335-.169.67-.337 1.174-.506.502-.169 1.005-.169 1.508-.169.503 0 .838 0 1.341.169.503 0 .839.169 1.174.337v-.843c0-.843-.168-1.348-.67-1.854-.504-.843-1.007-1.012-1.845-1.012-.503 0-.838.169-1.34.338a3.647 3.647 0 0 0-1.342.842l-.335-.842c1.173-.843 2.18-1.18 3.353-1.18s2.011.337 2.514.842c.67.675 1.006 1.518 1.006 2.53v4.045c0 .337.168.506.335.506v1.011h-.503c-.335 0-.503 0-.67-.168-.168-.169-.168-.337-.336-.675v-.674c-.335.506-.838 1.012-1.508 1.18-.67.337-1.341.506-2.012.506zm.335-.843c.67 0 1.174-.169 1.677-.337.503-.169.838-.506 1.173-.843.168-.169.168-.169.168-.337v-1.687c-.335-.168-.838-.336-1.174-.336-.335 0-.838-.169-1.173-.169-.838 0-1.509.169-2.012.506-.503.337-.838.843-.838 1.349 0 .337 0 .505.168.842.167.17.167.506.503.675.335.168.335.337.67.337.168-.169.503 0 .838 0z"/>
            <path d="M70.801 99.693c-.503 0-.838 0-1.173-.168-.336-.169-.671-.337-1.006-.674-.336-.338-.503-.506-.67-1.012-.168-.337-.168-.674-.168-1.18 0-.337.167-.843.335-1.18.167-.337.503-.674.838-.843.335-.169.838-.506 1.174-.506.838-.168 1.844-.337 2.85 0 .335 0 .67.169 1.005.169v-.506c0-.674-.167-1.349-.67-1.686-.336-.337-1.006-.674-1.677-.674-.335 0-.838.169-1.34.337-.504.169-.84.506-1.342.674l-.168.169-.67-1.18.167-.169c1.174-.843 2.347-1.18 3.353-1.18 1.174 0 2.012.337 2.682 1.012.671.674 1.006 1.517 1.006 2.697v4.046c0 .169.168.337.168.337h.335v1.349h-.67c-.336 0-.67-.169-.839-.337-.167 0-.167-.337-.167-.675v-.168a5.095 5.095 0 0 1-1.174.843c-.838.337-1.508.505-2.179.505zm.67-5.394c-.502 0-1.005 0-1.34.168-.503.169-.839.338-1.174.506-.335.169-.503.506-.67.843-.168.337-.168.674-.168 1.012 0 .337 0 .674.167 1.011.168.337.336.506.503.843.168.169.503.337.839.506.335.168.67.168 1.005.168.671 0 1.342-.168 1.844-.337.503-.337 1.006-.674 1.51-1.18l.334-.506v1.349c0 .169 0 .337.168.506.168.168.335.168.503.168h.168v-.674c-.336 0-.336-.337-.336-.674v-4.046c0-1.012-.335-1.855-.838-2.36-.503-.506-1.34-.843-2.514-.843-1.006 0-2.012.337-3.018 1.011l.168.337c.503-.337.838-.505 1.34-.674.504-.169 1.007-.337 1.51-.337.838 0 1.508.168 2.011.674.503.506.67 1.18.67 2.023v1.18l-.334-.168c-.336-.169-.671-.169-1.174-.338-.168 0-.67-.168-1.173-.168zm-.335 4.552c-.335 0-.67 0-.838-.169-.335-.169-.503-.337-.67-.506-.168-.168-.336-.506-.503-.674-.168-.337-.168-.506-.168-.843 0-.674.335-1.18.838-1.517.503-.337 1.174-.506 2.012-.506.503 0 .838 0 1.341.169.503 0 .838.168 1.173.337h.168v1.517c0 .169 0 .337-.168.337-.167 0-.167.337-.335.337-.335.337-.67.675-1.173 1.012a3.221 3.221 0 0 1-1.677.506zm.503-3.71c-.838 0-1.34.17-1.844.507-.503.337-.67.674-.67 1.18 0 .168 0 .505.167.674.168.168.168.337.336.506.167.168.335.337.67.337.168.168.503.168.67.168.504 0 1.007-.168 1.51-.337a1.72 1.72 0 0 0 1.005-.843c.168-.168.168-.168.168-.337v-1.518c-.335-.168-.67-.168-1.006-.336H71.64z"/>
        </g>
        <g>
            <path d="M80.524 99.525c-1.006 0-1.676-.337-2.18-1.012-.502-.674-.67-1.517-.67-2.865V90.42h1.174v4.89c0 2.022.67 3.034 2.011 3.034.336 0 .671 0 1.006-.169.336-.168.67-.337.838-.506.336-.168.503-.505.671-.842l.503-1.012v-5.563h1.173v7.249c0 .337.168.506.336.506v1.011h-.336-.167c-.336 0-.503-.168-.67-.337-.168-.169-.336-.337-.336-.674v-1.012a3.299 3.299 0 0 1-1.509 1.517c-.503.843-1.173 1.012-1.844 1.012z"/>
            <path fill-rule="nonzero" d="M80.524 99.693c-1.006 0-1.844-.337-2.347-1.011-.503-.674-.67-1.686-.67-3.034v-5.395h1.508v5.226c0 1.854.67 2.697 1.844 2.697.336 0 .671 0 .839-.168.335-.169.503-.338.838-.506.335-.169.503-.506.67-.674.168-.338.336-.506.503-.843v-5.732h1.509v7.586c0 .337.168.337.168.337h.167v1.349h-.67c-.336 0-.67-.169-.838-.337a1.292 1.292 0 0 1-.336-.843v-.337c-.335.505-.838.843-1.173 1.011-.503.506-1.341.674-2.012.674zm-2.682-8.934v4.889c0 1.18.168 2.191.67 2.697.503.506 1.006.843 2.012.843.67 0 1.341-.169 2.012-.506a3.299 3.299 0 0 0 1.509-1.517l.335-.675v1.855c0 .168 0 .506.167.506.168.168.336.168.503.168h.336v-.674c-.336 0-.336-.337-.336-.675v-7.08h-.838v5.395l-.503 1.011c-.167.337-.503.506-.838.843l-1.006.506c-.335.168-.67.168-1.006.168-1.508 0-2.179-1.011-2.179-3.203v-4.72h-.838v.169z"/>
        </g>
        <g fill-rule="nonzero">
            <path d="M91.253 99.525c-.67 0-1.173-.169-1.676-.337a2.608 2.608 0 0 1-1.341-1.012 3.264 3.264 0 0 1-.839-1.517c-.167-.674-.335-1.18-.335-1.686 0-.674.168-1.18.335-1.686.168-.505.503-1.011.839-1.517.335-.337.838-.674 1.34-1.011.504-.338 1.006-.338 1.677-.338.67 0 1.341.169 2.012.506a5.117 5.117 0 0 1 1.34 1.349V86.88h1.174v10.79c0 .337.168.505.336.505v1.012h-.336c-.335 0-.503-.169-.67-.337-.168-.169-.336-.338-.336-.675v-.843a5.117 5.117 0 0 1-1.34 1.349c-.839.674-1.51.843-2.18.843zm.335-1.012c.336 0 .503 0 .839-.168.335-.169.67-.337.838-.506.335-.169.503-.506.67-.674.168-.337.336-.506.336-.843v-2.697c-.168-.338-.336-.506-.503-.843-.168-.338-.503-.506-.67-.675-.169-.168-.504-.337-.84-.505-.334-.169-.67-.169-.837-.169-.503 0-.839.169-1.341.337-.336.169-.671.506-1.006.843-.336.337-.503.674-.67 1.18-.168.506-.168.843-.168 1.349s0 .843.167 1.348c.168.506.335.843.67 1.18.336.338.671.506 1.007.843.335.338 1.005 0 1.508 0z"/>
            <path d="M91.253 99.693c-.67 0-1.173-.168-1.844-.337-.503-.337-1.006-.674-1.341-1.011-.335-.506-.67-1.012-.838-1.517-.168-.506-.336-1.18-.336-1.855 0-.674.168-1.18.336-1.854.167-.506.503-1.012.838-1.517a2.608 2.608 0 0 1 1.341-1.012c.503-.337 1.006-.337 1.676-.337.839 0 1.51.168 2.012.674.335.337.67.506 1.006.843v-4.889h1.509V97.84c0 .337.167.337.167.337h.168v1.349h-.671c-.335 0-.67-.169-.838-.337a1.292 1.292 0 0 1-.335-.843v-.169c-.335.337-.67.675-1.174.843-.335.506-1.005.674-1.676.674zm-.168-9.103c-.503 0-1.005.169-1.508.337-.503.169-.839.506-1.174 1.012-.335.337-.67.843-.838 1.348-.168.506-.335 1.18-.335 1.686s.167 1.18.335 1.686.503 1.011.838 1.349c.335.337.838.674 1.341 1.011 1.006.506 2.18.506 3.353-.168.503-.338 1.006-.675 1.341-1.35l.335-.673v1.685c0 .169 0 .338.168.506.168.169.335.169.503.169h.168v-.675c-.336 0-.336-.337-.336-.674V87.22h-.67v5.9l-.335-.675c-.336-.505-.671-1.011-1.342-1.348-.502-.337-1.173-.506-1.844-.506zm.503 8.092c-.503 0-1.006-.169-1.34-.337-.504-.169-.839-.506-1.174-.843-.336-.337-.503-.674-.67-1.18-.168-.506-.336-1.012-.336-1.349 0-.506 0-1.011.168-1.348.167-.506.335-.843.67-1.18.335-.338.67-.675 1.006-.843.67-.338 1.509-.506 2.347-.169l1.006.506c.335.168.503.505.838.674.168.337.335.506.503.843v2.866c0 .337-.168.674-.335 1.011-.168.337-.503.506-.839.675l-1.005.505c-.336.169-.671.169-.839.169zm-.167-7.08c-.503 0-.839.168-1.174.337-.335.168-.67.505-.838.674-.335.337-.503.674-.67 1.012-.168.337-.168.842-.168 1.18 0 .505 0 .843.167 1.348.168.337.336.675.671 1.012.335.337.67.505 1.006.674.67.337 1.173.337 2.012.169.335-.169.67-.338.838-.506.335-.169.503-.337.67-.674.168-.169.336-.506.336-.675v-2.697c-.168-.337-.168-.506-.503-.843l-.67-.674c-.336-.169-.504-.337-.84-.506-.334.337-.67.169-.837.169z"/>
        </g>
        <g fill-rule="nonzero">
            <path d="M98.126 88.736V87.05H99.3v1.686h-1.174zm0 10.62V90.59H99.3v8.766h-1.174z"/>
            <path d="M99.467 99.525H97.96v-9.272h1.508v9.272zm-1.173-.337h.67v-8.43h-.67v8.43zm1.173-10.284H97.96v-2.023h1.508v2.023zm-1.173-.337h.67v-1.349h-.67v1.35z"/>
        </g>
        <g fill-rule="nonzero">
            <path d="M105.502 99.525c-.67 0-1.173-.169-1.676-.337a2.608 2.608 0 0 1-1.341-1.012 3.264 3.264 0 0 1-.838-1.517c-.168-.506-.336-1.18-.336-1.686 0-.674.168-1.18.336-1.686.167-.505.503-1.011.838-1.517.335-.337.838-.674 1.341-1.011.503-.338 1.173-.338 1.676-.338.67 0 1.174.169 1.677.338a2.608 2.608 0 0 1 1.34 1.011c.336.337.671.843.84 1.517.167.506.334 1.18.334 1.686 0 .675-.167 1.18-.335 1.686s-.503 1.011-.838 1.517c-.335.337-.838.675-1.341 1.012-.503.168-1.006.337-1.677.337zm-3.185-4.552c0 .506 0 1.012.168 1.349.168.337.335.843.67 1.18.336.337.671.506 1.006.674.336.169.838.337 1.174.337.503 0 .838-.168 1.173-.337.336-.168.67-.506 1.006-.843.335-.337.503-.674.67-1.18.168-.505.168-.843.168-1.348 0-.506-.167-1.012-.167-1.35-.168-.505-.336-.842-.67-1.18-.336-.336-.671-.505-1.007-.842-.335-.169-.838-.337-1.173-.337-.503 0-.838.168-1.174.337-.335.169-.67.506-1.006.843-.335.337-.502.674-.67 1.18-.168.506-.168 1.011-.168 1.517z"/>
            <path d="M105.502 99.693c-.67 0-1.34-.168-1.844-.337-.503-.168-1.005-.674-1.508-1.011l-1.006-1.517c-.168-.506-.336-1.18-.336-1.855 0-.674.168-1.18.336-1.854.167-.506.503-1.012 1.006-1.517.335-.506.838-.843 1.508-1.012a4.672 4.672 0 0 1 3.688 0l1.51 1.012 1.005 1.517c.168.506.335 1.18.335 1.854 0 .675-.167 1.18-.335 1.855-.168.505-.503 1.011-1.006 1.517-.335.506-.838.843-1.509 1.011-.502.169-1.173.337-1.844.337zm0-9.103c-.67 0-1.173.169-1.676.337a2.608 2.608 0 0 0-1.341 1.012c-.335.337-.67.843-.838 1.348-.168.506-.336 1.012-.336 1.686 0 .506.168 1.18.336 1.686.167.506.503 1.011.838 1.349.335.337.838.674 1.341 1.011 1.006.506 2.347.506 3.353 0a2.608 2.608 0 0 0 1.34-1.011c.336-.338.671-.843.84-1.349.167-.506.334-1.011.334-1.686 0-.506-.167-1.18-.335-1.686a3.674 3.674 0 0 0-.838-1.348c-.335-.337-.838-.675-1.341-1.012-.503-.168-1.174-.337-1.677-.337zm0 8.092c-.503 0-.838-.169-1.34-.337-.336-.169-.839-.506-1.007-.843-.335-.337-.502-.674-.67-1.18-.168-.506-.335-1.012-.335-1.517 0-.506.167-1.012.335-1.518.168-.505.503-.843.67-1.18.336-.337.671-.674 1.006-.843a3.683 3.683 0 0 1 2.683 0c.335.169.838.506 1.005.843.336.337.503.675.67 1.18.169.506.336 1.012.336 1.518 0 .505-.167 1.011-.335 1.517s-.503.843-.67 1.18c-.336.337-.671.674-1.006.843-.503.337-.839.337-1.342.337zm0-7.08c-.335 0-.838.168-1.173.337-.335.168-.67.337-1.006.674-.335.337-.503.674-.67 1.012-.168.337-.168.842-.168 1.348 0 .506 0 .843.168 1.349.167.337.335.674.67 1.011.335.337.503.506 1.006.675.67.337 1.509.337 2.347 0 .335-.169.67-.338 1.006-.675.335-.337.503-.674.67-1.011.168-.337.168-.843.168-1.349s0-.843-.168-1.348c-.167-.338-.335-.843-.67-1.012-.336-.337-.67-.506-1.006-.674-.335-.169-.838-.337-1.174-.337z"/>
        </g>
    </g>
</svg>
