<svg xmlns="http://www.w3.org/2000/svg" xmlns:xlink="http://www.w3.org/1999/xlink" width="20" height="36" viewBox="0 0 20 36">
    <defs>
        <path id="a" d="M0 .077h19.911V16.8H0z"/>
        <path id="c" d="M.068.068h14.826v25.699H.068z"/>
    </defs>
    <g fill="none" fill-rule="evenodd">
        <g transform="translate(0 19.2)">
            <mask id="b" fill="#fff">
                <use xlink:href="#a"/>
            </mask>
            <path fill="#FFC842" d="M10.54 10.542v5.091h5.699a.584.584 0 1 1 0 1.167H3.672a.584.584 0 1 1 0-1.167h5.699v-5.091C4.18 10.24.029 5.934 0 .685A.584.584 0 0 1 .581.098h.004c.321 0 .582.26.585.581.026 4.804 3.968 8.714 8.786 8.714 4.829 0 8.77-3.92 8.785-8.735a.585.585 0 0 1 .585-.581h.003a.583.583 0 0 1 .582.586c-.016 5.26-4.17 9.577-9.37 9.879" mask="url(#b)"/>
        </g>
        <g transform="translate(2.4)">
            <mask id="d" fill="#fff">
                <use xlink:href="#c"/>
            </mask>
            <path fill="#FFC842" d="M13.727 18.363a6.242 6.242 0 0 1-6.246 6.238 6.242 6.242 0 0 1-6.247-6.238V7.471a6.242 6.242 0 0 1 6.247-6.238 6.242 6.242 0 0 1 6.246 6.238v10.892zM7.481.068C3.393.068.068 3.388.068 7.47v10.892c0 4.083 3.325 7.404 7.413 7.404s7.413-3.321 7.413-7.404V7.471c0-4.083-3.325-7.403-7.413-7.403z" mask="url(#d)"/>
        </g>
        <path fill="#FFC842" d="M15.467 7.419A.583.583 0 0 1 14.88 8h-.002a.585.585 0 0 1-.59-.578c-.004-2.277-1.482-4.129-3.293-4.129a.59.59 0 0 1-.595-.58.58.58 0 0 1 .584-.58h.01c2.46 0 4.465 2.372 4.473 5.286"/>
    </g>
</svg>
