<svg xmlns="http://www.w3.org/2000/svg" xmlns:xlink="http://www.w3.org/1999/xlink" width="45" height="45" viewBox="0 0 45 45">
    <defs>
        <path id="a" d="M.453.056h1.11v6.666H.454z"/>
        <path id="c" d="M.453 0h1.11v6.667H.454z"/>
        <path id="e" d="M.286.111h6.667v1.222H.286z"/>
        <path id="g" d="M0 .214h6.62V1.61H0z"/>
    </defs>
    <g fill="none" fill-rule="evenodd">
        <path fill="#FFC842" d="M22.064 34.111c-6.333 0-11.5-5.11-11.5-11.444 0-6.334 5.167-11.5 11.5-11.5s11.5 5.166 11.5 11.5c0 6.333-5.222 11.444-11.5 11.444m0-24.055c-6.944 0-12.61 5.666-12.61 12.61 0 6.945 5.666 12.612 12.61 12.612 6.945 0 12.611-5.667 12.611-12.611 0-6.945-5.722-12.611-12.61-12.611"/>
        <g transform="translate(21.111 .5)">
            <mask id="b" fill="#fff">
                <use xlink:href="#a"/>
            </mask>
            <path fill="#FFC842" d="M1.008 6.722c.334 0 .556-.222.556-.555V.61c0-.333-.222-.556-.556-.556-.333 0-.555.223-.555.556v5.556c0 .277.222.555.555.555" mask="url(#b)"/>
        </g>
        <g transform="translate(21.111 38.278)">
            <mask id="d" fill="#fff">
                <use xlink:href="#c"/>
            </mask>
            <path fill="#FFC842" d="M1.564 6.111V.556C1.564.222 1.342 0 1.008 0 .675 0 .453.222.453.556V6.11c0 .334.222.556.555.556a.557.557 0 0 0 .556-.556" mask="url(#d)"/>
        </g>
        <path fill="#FFC842" d="M29.675 9.222a.5.5 0 0 0 .278.056.662.662 0 0 0 .5-.278l2.777-4.833c.167-.278.056-.611-.221-.778-.278-.167-.612-.056-.778.222l-2.778 4.833c-.111.278-.055.611.222.778M36.064 14.945l4.778-2.834c.278-.166.333-.5.222-.778-.167-.277-.5-.333-.778-.222l-4.777 2.89c-.278.166-.334.5-.223.777a.583.583 0 0 0 .5.278c.111 0 .222-.056.278-.111"/>
        <g transform="translate(37.222 21.611)">
            <mask id="f" fill="#fff">
                <use xlink:href="#e"/>
            </mask>
            <path fill="#FFC842" d="M6.397.111L.842.222a.557.557 0 0 0-.556.556c0 .278.278.555.556.555l5.555-.11a.557.557 0 0 0 .556-.556c0-.278-.278-.556-.556-.556" mask="url(#f)"/>
        </g>
        <path fill="#FFC842" d="M41.23 32.5l-4.888-2.667c-.278-.166-.611-.055-.778.223-.166.278-.055.61.222.777l4.89 2.667c.11.055.166.055.277.055a.582.582 0 0 0 .5-.277c.111-.278.056-.611-.222-.778M30.897 36c-.166-.278-.5-.334-.777-.167-.278.167-.334.5-.167.778l2.889 4.723a.585.585 0 0 0 .5.277c.111 0 .222 0 .277-.056.278-.166.334-.5.167-.777L30.897 36zM12.009 42.278a.583.583 0 0 0 .5-.278l2.61-4.944c.167-.278.056-.611-.222-.779-.277-.166-.61-.055-.777.223l-2.611 4.945c-.167.277-.056.61.222.777.11.056.166.056.278.056M9.009 30.944c-.167-.277-.5-.333-.778-.166l-4.667 3c-.278.166-.333.5-.167.778.112.166.278.277.445.277a.424.424 0 0 0 .278-.11l4.666-3c.334-.167.39-.5.223-.779"/>
        <g transform="translate(0 22.722)">
            <mask id="h" fill="#fff">
                <use xlink:href="#g"/>
            </mask>
            <path fill="#FFC842" d="M6.62.722c0-.333-.278-.555-.556-.5L.508.5c-.333 0-.555.278-.5.556 0 .277.278.555.556.555H.62l5.555-.278c.222-.055.445-.333.445-.61" mask="url(#h)"/>
        </g>
        <path fill="#FFC842" d="M2.564 13.389l4.945 2.5c.055.055.166.055.277.055a.583.583 0 0 0 .5-.277c.111-.278.056-.611-.222-.723l-4.944-2.5c-.278-.11-.611-.055-.723.223-.222.277-.11.61.167.722M12.73 9.611a.505.505 0 0 0 .445.222c.111 0 .222-.055.333-.11.278-.167.334-.5.167-.779l-3.055-4.61c-.167-.278-.5-.334-.778-.167-.278.166-.334.5-.167.777l3.056 4.667zM26.286 23.611l-6.667-3.167 6.723-3.889c.278-.166.333-.5.222-.777-.167-.278-.5-.334-.777-.223l-7.668 4.39a.583.583 0 0 0-.277.5c0 .222.11.388.333.5l6.778 3.166-6.89 4.611c-.277.167-.332.5-.166.778a.505.505 0 0 0 .445.222c.11 0 .222-.055.333-.111l7.722-5.167c.167-.11.278-.277.223-.5-.056-.055-.167-.222-.334-.333"/>
    </g>
</svg>
