<svg xmlns="http://www.w3.org/2000/svg" width="1440" height="448" viewBox="0 0 1440 448">
    <path fill="#F9F9FA" fill-rule="evenodd" d="M5662.587 448c-103.057 0-153.193-110.6-201.937-218.4C5414.692 126 5370.127 28 5285.174 28s-129.518 98-175.476 201.6C5060.955 337.4 5012.21 448 4907.76 448c-103.057 0-153.193-110.6-201.937-218.4C4658.474 126 4615.301 28 4528.956 28c-86.346 0-129.519 98-175.477 201.6-48.743 107.8-97.486 218.4-201.936 218.4-103.058 0-153.194-110.6-201.937-218.4C3903.648 126 3860.475 28 3774.13 28c-84.953 0-129.519 98-175.477 201.6-48.743 107.8-97.486 218.4-201.936 218.4-103.058 0-153.194-110.6-201.937-218.4C3148.822 126 3105.65 28 3019.304 28c-84.953 0-129.518 98-175.476 201.6C2795.084 337.4 2746.34 448 2641.89 448c-103.058 0-153.194-110.6-201.937-218.4C2393.996 126 2350.824 28 2264.478 28s-129.518 98-175.476 201.6c-48.744 107.8-97.487 218.4-201.937 218.4-103.058 0-153.194-110.6-201.937-218.4C1639.17 126 1594.605 28 1509.652 28s-129.518 98-175.476 201.6c-48.744 107.8-97.487 218.4-201.937 218.4-103.058 0-153.194-110.6-201.937-218.4C884.344 126 839.78 28 754.826 28S625.308 126 579.35 229.6C530.606 337.4 481.863 448 377.413 448c-103.057 0-153.193-110.6-201.937-218.4C129.518 126 84.953 28 0 28V0c103.057 0 153.193 110.6 201.937 218.4C247.895 322 292.46 420 377.413 420s129.518-98 175.476-201.6C601.632 110.6 651.77 0 754.826 0c103.057 0 153.193 110.6 201.937 218.4C1002.72 322 1047.286 420 1132.239 420s129.518-98 175.476-201.6C1356.458 110.6 1406.595 0 1509.652 0c103.057 0 153.193 110.6 201.937 218.4C1757.547 322 1802.112 420 1887.065 420s129.518-98 175.476-201.6C2111.284 110.6 2160.028 0 2264.478 0c103.057 0 153.193 110.6 201.937 218.4C2512.373 322 2556.938 420 2641.89 420c84.952 0 129.518-98 175.476-201.6C2866.11 110.6 2914.854 0 3019.304 0c103.057 0 153.193 110.6 201.936 218.4C3267.2 322 3311.764 420 3396.717 420c84.952 0 129.518-98 175.476-201.6C3620.936 110.6 3671.073 0 3774.13 0c103.057 0 153.193 110.6 201.936 218.4C4022.024 322 4066.59 420 4151.543 420c84.952 0 129.518-98 175.476-201.6C4375.762 110.6 4424.505 0 4528.955 0c103.058 0 153.194 110.6 201.937 218.4C4776.85 322 4821.416 420 4906.368 420c84.953 0 129.519-98 175.477-201.6C5131.98 110.6 5180.724 0 5285.175 0c104.45 0 153.193 110.6 201.936 218.4C5533.069 322 5577.634 420 5662.587 420s129.518-98 175.476-201.6C5886.807 110.6 5935.55 0 6040 0v28c-84.953 0-129.518 98-175.476 201.6-48.744 107.8-98.88 218.4-201.937 218.4z" opacity=".05"/>
</svg>
