<svg xmlns="http://www.w3.org/2000/svg" xmlns:xlink="http://www.w3.org/1999/xlink" width="39" height="45" viewBox="0 0 39 45">
    <defs>
        <path id="a" d="M0 0h38.72v45H0z"/>
    </defs>
    <g fill="none" fill-rule="evenodd">
        <mask id="b" fill="#fff">
            <use xlink:href="#a"/>
        </mask>
        <path fill="#FFC842" d="M19.377 15.419c.415 1.591.946 3.13 1.52 4.594.845 2.154 1.603 4.203 1.603 6.165 0 .61-.34 1.428-.916 2.06-.575.634-1.351 1.08-2.223 1.08-.873 0-1.65-.446-2.224-1.08-.576-.632-.916-1.45-.916-2.06 0-1.962.75-4.011 1.602-6.165a43.272 43.272 0 0 0 1.554-4.594m-.05-2.862c-.252.01-.404.284-.457.475-.267 2.258-1.154 4.442-2.011 6.606-.857 2.163-1.684 4.316-1.684 6.54 0 .96.444 1.958 1.177 2.764.732.806 1.788 1.422 3.009 1.422 1.22 0 2.275-.616 3.008-1.422.733-.806 1.178-1.804 1.178-2.764 0-2.224-.82-4.378-1.668-6.54-.849-2.163-1.728-4.35-1.963-6.606-.062-.377-.346-.47-.588-.475M19.36 1.16c5.267 3.526 10.135 6.69 18.297 9.664-.09 11.84-4.817 22.847-18.297 32.982C5.88 33.67 1.153 22.664 1.063 10.824 9.22 7.859 14.614 4.7 19.36 1.16M19.05.113C14.22 3.752 8.808 6.937.343 9.973A.538.538 0 0 0 0 10.48c0 12.348 4.973 23.968 19.05 34.422a.539.539 0 0 0 .62 0C33.749 34.448 38.722 22.828 38.722 10.48a.54.54 0 0 0-.343-.506C29.92 6.939 25.122 3.759 19.655.097c-.283-.163-.43-.095-.605.016" mask="url(#b)"/>
    </g>
</svg>
