<svg xmlns="http://www.w3.org/2000/svg" xmlns:xlink="http://www.w3.org/1999/xlink" width="45" height="32" viewBox="0 0 45 32">
    <defs>
        <path id="a" d="M.091.273h39.272V19.91H.091z"/>
    </defs>
    <g fill="none" fill-rule="evenodd">
        <path fill="#FFC842" d="M5 20.221c-2.08.28-3.636 2.018-3.636 4.188S2.919 28.317 5 28.597v-8.376zm1.364 9.78H5.59A5.597 5.597 0 0 1 0 24.408a5.597 5.597 0 0 1 5.59-5.59h.774V30zM40 20.221v8.376c2.08-.28 3.636-2.019 3.636-4.188 0-2.17-1.555-3.909-3.636-4.188m-.59 9.78h-.774V18.817h.773A5.597 5.597 0 0 1 45 24.408 5.597 5.597 0 0 1 39.41 30"/>
        <g transform="translate(2.727 .182)">
            <mask id="b" fill="#fff">
                <use xlink:href="#a"/>
            </mask>
            <path fill="#FFC842" d="M39.363 19.91H38C38 9.833 29.803 1.636 19.727 1.636c-10.075 0-18.272 8.197-18.272 18.272H.09C.091 9.082 8.9.273 19.727.273c10.828 0 19.636 8.809 19.636 19.636" mask="url(#b)"/>
        </g>
        <path fill="#FFC842" d="M6.41 19.318c-.034 0-.046.013-.046.046v10.318c0 .032.012.045.045.045h1.227c.033 0 .046-.013.046-.045V19.364c0-.033-.013-.046-.046-.046H6.41zM7.635 31.09H6.41C5.62 31.09 5 30.472 5 29.682V19.364c0-.79.62-1.41 1.41-1.41h1.226c.79 0 1.41.62 1.41 1.41v10.318c0 .79-.62 1.408-1.41 1.408zM37.364 19.318c-.033 0-.046.013-.046.046v10.318c0 .032.013.045.046.045h1.227c.032 0 .045-.013.045-.045V19.364c0-.033-.013-.046-.045-.046h-1.227zM38.59 31.09h-1.227c-.79 0-1.41-.618-1.41-1.408V19.364c0-.79.62-1.41 1.41-1.41h1.227c.79 0 1.41.62 1.41 1.41v10.318c0 .79-.62 1.408-1.41 1.408zM19.591 21.818a.68.68 0 0 1-.426-1.214l.045-.037c1.073-.892 2.253-1.327 3.49-1.294 1.684.051 2.793.983 3.191 1.381a.682.682 0 0 1-.964.965c-.283-.284-1.072-.947-2.266-.983-1.353-.04-2.277.729-2.58.98l-.064.053a.678.678 0 0 1-.426.15M28.636 18.545a.68.68 0 0 1-.482-.2c-.53-.53-2.491-2.264-5.49-2.346-3.145-.085-5.248 1.776-5.818 2.347a.683.683 0 0 1-.965-.965c.668-.667 3.126-2.84 6.818-2.745 3.504.095 5.8 2.125 6.42 2.745a.683.683 0 0 1-.483 1.164"/>
        <path fill="#FFC842" d="M31.682 14.818a.68.68 0 0 1-.5-.218c-.785-.845-3.705-3.613-8.337-3.737-4.464-.105-7.536 2.29-8.973 3.729l-.508-.456-.457-.508C14.5 12.034 17.91 9.378 22.88 9.5c5.165.138 8.425 3.228 9.302 4.172a.682.682 0 0 1-.5 1.146z"/>
    </g>
</svg>
